<?xml version="1.0" encoding="utf-8"?>
<!-- Generator: Adobe Illustrator 19.1.0, SVG Export Plug-In . SVG Version: 6.00 Build 0)  -->
<svg version="1.1" xmlns="http://www.w3.org/2000/svg" xmlns:xlink="http://www.w3.org/1999/xlink" x="0px" y="0px"
	 viewBox="0 0 135.4 34.6" enable-background="new 0 0 135.4 34.6" xml:space="preserve">
<g id="Desktop_Guides" display="none">
	<g id="Desktop_Grid" display="inline">
	</g>
</g>
<g id="Mobile_Guides" display="none">
</g>
<g id="Layer_4">
	<g>
		<path fill="#FFFFFF" d="M0.9,17.3C0.9,7,8.8,0.8,18.5,0.8c7.6,0,12,4.2,14.1,8.4l-8.2,4.2c-0.9-2-3-4-5.9-4c-4.7,0-7.8,3.6-7.8,8
			s3.1,8,7.8,8c1.8,0,4-0.7,5-1.4v-1.2h-6v-8.4h15.6v13.1c-3.6,3.9-8.4,6.5-14.6,6.5C8.8,33.9,0.9,27.5,0.9,17.3z"/>
		<path fill="#FFFFFF" d="M35.7,17.3c0-9.9,7.6-16.6,17.6-16.6c8.4,0,12.6,4.9,14.5,9.3L59.5,14c-0.8-2.5-3.3-4.7-6.2-4.7
			c-4.7,0-7.8,3.6-7.8,8s3.1,8,7.8,8c2.9,0,5.4-2.2,6.2-4.7l8.4,3.8c-1.9,4.3-6.1,9.4-14.5,9.4C43.3,33.9,35.7,27.2,35.7,17.3z"/>
		<path fill="#FFFFFF" d="M89.6,33.3L82.4,22l-1.8,2.4v8.9h-9.7v-32h9.7v12l8.4-12h11.9L88.8,16.2l12.6,17.1H89.6z"/>
		<path fill="#FFFFFF" d="M99.5,17.3c0-9.8,7.6-16.6,17.5-16.6c9.9,0,17.5,6.7,17.5,16.6s-7.6,16.6-17.5,16.6
			C107.1,33.9,99.5,27.2,99.5,17.3z M124.7,17.3c0-4.5-3-8-7.7-8c-4.7,0-7.7,3.6-7.7,8s3,8,7.7,8C121.6,25.3,124.7,21.8,124.7,17.3z
			"/>
	</g>
</g>
</svg>
